<?xml version="1.0" standalone="no"?>
<!DOCTYPE svg PUBLIC "-//W3C//DTD SVG 20010904//EN"
 "http://www.w3.org/TR/2001/REC-SVG-20010904/DTD/svg10.dtd">
<svg version="1.0" xmlns="http://www.w3.org/2000/svg"
 width="848.000000pt" height="848.000000pt" viewBox="0 0 848.000000 848.000000"
 preserveAspectRatio="xMidYMid meet">
<metadata>
Created by potrace 1.16, written by Peter Selinger 2001-2019
</metadata>
<g transform="translate(0.000000,848.000000) scale(0.100000,-0.100000)"
fill="#000000" stroke="none">
<path d="M4820 8282 c-30 -1 -64 -7 -75 -12 -11 -5 -54 -11 -95 -13 -82 -5
-166 -21 -185 -37 -6 -5 -32 -11 -58 -13 -25 -1 -49 -6 -53 -10 -4 -4 -42 -7
-85 -7 -43 0 -81 -4 -84 -10 -3 -5 -22 -10 -41 -10 -19 0 -48 -7 -64 -15 -27
-14 -32 -14 -55 1 -20 13 -40 15 -102 10 -75 -6 -92 -7 -130 -6 -48 0 -53 -2
-53 -21 0 -17 -3 -18 -21 -7 -17 10 -23 10 -26 1 -3 -7 -13 -13 -24 -13 -10 0
-19 -4 -19 -10 0 -14 -33 -29 -75 -34 -21 -3 -43 -10 -48 -15 -6 -6 -21 -11
-33 -11 -13 0 -26 -4 -29 -10 -3 -5 -15 -10 -26 -10 -10 0 -19 -4 -19 -10 0
-5 -7 -10 -16 -10 -8 0 -30 -11 -48 -25 -18 -14 -37 -25 -42 -25 -5 0 -32 -20
-61 -45 -28 -25 -55 -45 -60 -45 -5 0 -25 -14 -43 -30 -19 -17 -45 -33 -58
-37 -14 -3 -41 -23 -61 -44 -20 -22 -42 -39 -49 -39 -16 0 -104 -66 -115 -86
-4 -8 -14 -14 -20 -14 -18 0 -151 -140 -166 -175 -7 -16 -19 -43 -27 -58 -9
-18 -14 -62 -14 -120 0 -91 0 -93 -35 -132 -20 -22 -45 -59 -57 -83 -11 -23
-24 -45 -29 -48 -11 -7 -12 -61 -1 -68 13 -8 14 -184 0 -205 -9 -15 -9 -28 0
-58 6 -21 16 -69 23 -108 6 -38 16 -79 22 -90 48 -89 57 -111 57 -145 0 -21 4
-42 10 -45 11 -7 8 -94 -4 -113 -4 -7 1 -24 12 -40 21 -29 28 -118 11 -139
-15 -17 0 -82 24 -104 l21 -19 -23 -24 c-22 -23 -22 -25 -6 -50 21 -32 41 -33
56 -3 6 12 13 23 14 25 1 1 28 -22 60 -51 35 -33 55 -59 51 -66 -4 -6 -12 -8
-18 -5 -6 4 -17 -1 -24 -10 -8 -11 -14 -13 -19 -7 -3 6 -13 11 -21 11 -8 0
-24 9 -36 20 -21 20 -32 22 -93 23 -23 1 -31 -4 -33 -21 -2 -12 4 -29 12 -38
20 -19 20 -30 1 -38 -16 -6 -22 -66 -6 -66 4 0 11 -66 13 -147 4 -119 10 -159
27 -203 11 -30 21 -66 21 -79 0 -16 4 -21 15 -17 8 3 15 2 15 -3 0 -5 12 -16
26 -26 19 -12 32 -14 48 -7 21 9 21 9 1 16 -26 8 -60 59 -77 114 -7 23 -16 42
-20 42 -12 0 -10 289 2 330 5 20 17 45 25 55 14 19 16 19 28 3 9 -12 17 -14
24 -7 12 12 58 2 74 -17 6 -8 18 -14 26 -14 11 0 13 12 9 54 -4 49 -2 56 20
71 27 18 28 16 14 -20 -5 -14 -10 -62 -11 -105 -1 -54 -6 -83 -15 -91 -8 -6
-14 -18 -14 -25 0 -7 -6 -11 -13 -8 -8 3 -18 -9 -25 -30 -7 -19 -26 -46 -42
-60 -24 -19 -26 -25 -14 -30 18 -7 13 -32 -6 -28 -17 4 -8 -75 14 -118 9 -18
16 -39 16 -45 0 -15 43 -45 64 -45 8 0 24 -13 35 -29 17 -23 21 -44 21 -101 0
-51 4 -76 15 -87 12 -11 15 -32 13 -77 l-3 -61 -47 -3 c-27 -2 -48 -7 -48 -12
0 -14 101 -16 119 -3 27 21 51 16 51 -11 0 -14 4 -27 9 -30 4 -3 11 -24 15
-46 3 -23 10 -49 15 -58 5 -9 14 -37 21 -62 7 -25 16 -53 21 -62 5 -10 9 -29
9 -42 0 -14 5 -28 10 -31 6 -3 10 -27 10 -53 0 -65 11 -122 22 -122 6 0 8 9 5
20 -3 11 -1 20 4 20 5 0 9 -6 9 -14 0 -18 33 -76 43 -76 4 0 5 -16 1 -35 -5
-29 -4 -34 9 -29 8 3 18 0 23 -7 4 -7 2 -15 -4 -17 -14 -4 -16 -32 -3 -32 5 0
11 6 14 13 3 9 7 9 20 -2 10 -7 17 -18 17 -24 0 -6 8 -19 17 -29 16 -18 16
-18 0 -12 -10 3 -17 1 -17 -5 0 -6 4 -11 9 -11 5 0 12 -9 16 -19 3 -11 19 -24
35 -30 19 -6 32 -19 36 -36 4 -18 11 -24 21 -20 10 3 13 1 10 -9 -3 -8 3 -22
14 -32 13 -12 19 -13 19 -4 0 7 12 -3 28 -23 15 -20 34 -35 42 -34 8 1 16 -6
18 -15 2 -11 -3 -18 -12 -18 -9 0 -16 -4 -16 -9 0 -4 11 -6 23 -4 17 3 34 -4
56 -25 18 -16 40 -28 49 -25 10 2 31 -10 51 -31 19 -20 45 -36 56 -36 12 0 30
-9 39 -19 10 -11 28 -22 42 -25 13 -4 24 -13 24 -21 0 -11 8 -13 30 -8 27 5
30 3 28 -18 -3 -21 1 -24 25 -21 15 1 27 -1 27 -6 0 -14 43 -23 51 -10 8 13
62 -3 85 -27 17 -17 50 -20 59 -5 3 6 1 10 -4 10 -6 0 -11 4 -11 9 0 6 12 4
27 -4 16 -9 31 -11 38 -5 6 5 41 10 78 11 40 1 71 7 78 15 6 7 17 10 25 7 8
-3 26 3 40 12 22 14 28 15 35 4 6 -10 9 -11 9 -1 0 6 11 12 24 12 14 0 28 5
32 11 3 6 22 9 42 7 27 -3 36 0 40 14 2 11 14 18 28 18 12 0 26 5 29 10 5 8
11 7 21 -1 11 -9 16 -6 23 13 5 14 15 25 23 26 35 3 106 29 135 50 37 26 43
27 43 7 0 -8 3 -15 7 -15 9 0 80 76 93 99 5 11 20 21 32 23 13 2 27 13 33 26
5 12 15 22 21 22 6 0 69 57 140 128 l129 127 5 -105 c3 -65 8 -96 12 -81 4 14
6 61 4 105 -2 59 2 97 15 138 11 32 19 69 19 82 0 18 4 24 15 20 9 -4 17 1 21
12 3 11 10 27 15 36 5 10 9 27 9 37 0 11 5 23 10 26 6 3 10 15 10 25 0 10 6
23 14 27 8 4 16 28 19 53 3 25 10 63 17 85 6 22 14 54 17 70 3 17 9 35 14 40
4 6 11 34 15 63 l7 52 54 0 c40 0 53 3 50 13 -2 6 -10 11 -17 9 -28 -6 -50 10
-50 37 0 15 4 31 9 36 15 16 34 124 38 220 2 53 9 96 17 105 28 34 44 143 24
168 -7 8 -7 16 0 25 7 8 7 28 0 62 -5 28 -12 79 -15 115 -2 36 -9 69 -14 74
-5 6 -9 27 -9 47 0 21 -4 41 -10 44 -30 19 20 94 63 95 9 0 23 11 29 25 6 14
15 25 20 25 4 0 8 13 8 29 0 17 5 33 10 36 6 3 10 15 10 25 0 10 5 31 12 47 7
15 13 80 15 143 3 135 5 166 16 176 4 4 7 38 7 75 0 37 5 71 10 74 6 3 7 17 4
31 -4 14 -2 24 4 24 11 0 27 56 23 80 -2 8 -7 18 -13 21 -6 4 -5 14 3 27 11
17 8 25 -19 58 -45 55 -41 77 6 31 21 -21 41 -35 44 -32 3 3 -6 29 -21 57 -42
81 -50 95 -67 109 -13 10 -17 10 -25 -2 -7 -11 -9 -9 -9 8 0 13 -8 24 -21 28
-11 4 -25 18 -31 31 -6 13 -16 23 -22 22 -15 -3 -56 20 -56 32 0 5 6 15 13 22
12 13 31 50 41 81 9 27 26 10 26 -26 0 -22 3 -28 11 -20 5 5 11 57 13 114 1
57 6 112 11 122 4 9 4 30 0 45 -12 43 -16 250 -5 257 19 11 10 27 -11 22 -20
-5 -21 -3 -16 29 5 27 0 43 -19 71 -28 42 -30 53 -9 53 32 0 27 41 -16 122 -5
10 -9 24 -9 32 0 8 -7 16 -15 20 -8 3 -15 13 -15 23 0 10 -13 24 -30 31 -17 8
-30 21 -30 31 0 20 -91 109 -132 130 -16 8 -28 18 -28 23 0 4 -9 8 -19 8 -11
0 -23 5 -26 10 -3 6 -15 10 -26 10 -11 0 -34 7 -51 16 -21 11 -58 15 -126 15
-53 0 -101 4 -107 9 -11 9 -185 17 -275 12z m-164 -1083 c6 -5 14 -6 17 -3 3
3 11 2 18 -2 7 -4 35 -9 62 -10 26 -1 54 -7 60 -12 7 -5 28 -13 47 -17 37 -8
72 -37 84 -70 7 -19 8 -19 20 -2 12 16 15 14 37 -18 13 -20 35 -38 49 -42 32
-7 60 -32 60 -52 1 -14 2 -14 14 2 18 24 29 21 23 -5 -4 -14 1 -31 11 -44 18
-22 115 -84 132 -84 6 0 10 -7 10 -15 0 -8 6 -15 14 -15 8 0 18 -9 21 -20 4
-11 15 -20 27 -20 14 0 18 -5 14 -15 -3 -8 -1 -15 4 -15 15 0 38 -61 45 -117
4 -29 10 -55 14 -57 4 -3 8 -39 10 -81 2 -78 -10 -95 -23 -33 -7 32 -8 32 -17
10 -7 -19 -4 -30 16 -53 13 -17 30 -49 36 -72 6 -23 31 -69 55 -101 24 -33 44
-65 44 -72 0 -7 11 -25 24 -39 22 -24 24 -34 23 -108 l-2 -82 -39 -3 c-21 -2
-43 1 -49 7 -6 6 -15 11 -19 11 -14 0 -9 -28 9 -45 12 -12 16 -31 14 -65 -1
-27 3 -51 9 -55 5 -3 10 -28 10 -55 0 -27 5 -52 10 -55 6 -4 10 15 10 49 0 31
-4 56 -10 56 -5 0 -10 21 -10 46 0 45 0 45 31 42 26 -3 33 -9 45 -43 7 -22 14
-54 14 -72 0 -17 5 -35 10 -38 18 -11 11 -293 -11 -477 -11 -95 -21 -202 -20
-238 0 -41 -6 -74 -16 -89 -11 -17 -12 -26 -4 -34 15 -15 13 -48 -4 -71 -20
-27 -31 -13 -12 15 14 20 13 49 -2 49 -3 0 -16 -15 -29 -33 -16 -25 -23 -50
-24 -96 -1 -34 -5 -64 -10 -67 -4 -3 -8 -13 -8 -24 0 -10 -7 -20 -14 -23 -8
-3 -18 -22 -22 -42 -4 -23 -10 -32 -14 -25 -11 18 -18 0 -25 -64 -4 -35 -15
-70 -30 -92 -13 -19 -22 -41 -19 -48 2 -7 -9 -24 -26 -39 -16 -15 -30 -32 -30
-37 0 -6 -5 -10 -10 -10 -6 0 -23 -14 -39 -32 -29 -33 -57 -31 -48 3 8 32 -17
27 -51 -9 -31 -34 -33 -35 -39 -14 -8 31 -23 27 -23 -5 0 -41 -16 -61 -23 -31
-4 12 -7 33 -7 46 0 12 -4 22 -10 22 -5 0 -10 -13 -10 -30 0 -22 -7 -33 -29
-44 -16 -9 -34 -29 -39 -46 -6 -16 -17 -30 -23 -30 -7 0 -23 -10 -36 -21 -18
-18 -25 -20 -38 -9 -12 10 -16 9 -21 -4 -3 -9 -4 -26 -1 -37 5 -18 2 -20 -19
-15 -17 5 -24 2 -24 -9 0 -18 -12 -19 -28 -3 -9 9 -12 8 -12 -5 0 -21 -19 -22
-26 -2 -8 19 -30 19 -38 0 -4 -11 -13 -14 -31 -9 -15 4 -25 2 -25 -5 0 -16
-79 -8 -90 9 -5 8 -12 11 -16 7 -4 -4 -13 -2 -21 4 -10 9 -17 8 -28 -1 -13
-10 -15 -9 -15 10 0 18 -4 21 -22 17 -45 -12 -67 40 -35 81 7 9 7 16 -1 24 -8
8 -13 6 -18 -8 -4 -10 -11 -21 -15 -24 -3 -3 -15 -19 -26 -37 l-19 -31 -19 29
c-22 32 -42 40 -30 12 4 -10 10 -28 12 -40 5 -21 2 -22 -23 -17 -21 4 -35 0
-52 -16 -13 -12 -25 -20 -26 -19 -2 2 -8 13 -14 24 -10 19 -11 19 -20 -5 -9
-22 -11 -23 -17 -7 -9 21 -25 23 -25 2 0 -22 -18 -18 -25 5 -4 11 -14 19 -22
18 -9 -2 -18 3 -20 10 -3 6 2 12 11 12 9 0 16 4 16 9 0 6 -9 9 -20 8 -11 -1
-20 -7 -20 -14 0 -8 -12 -13 -30 -13 -16 0 -30 -5 -30 -11 0 -5 -5 -7 -11 -3
-8 4 -7 9 2 15 11 6 11 13 3 26 -9 14 -24 18 -69 18 -49 0 -62 4 -88 28 -16
15 -38 27 -48 27 -10 0 -24 10 -30 23 -7 12 -23 32 -36 44 -12 12 -23 28 -23
36 0 8 -8 17 -19 20 -19 4 -29 36 -35 107 -2 19 -4 40 -6 45 -8 23 14 87 36
104 12 10 26 29 29 44 8 31 49 71 67 65 7 -3 19 1 26 8 12 13 22 12 67 -6 33
-12 114 -30 138 -30 13 0 27 -3 31 -7 4 -4 27 -12 51 -19 l45 -11 0 28 c0 15
6 29 13 32 18 6 -9 35 -36 39 -12 2 -22 10 -22 18 0 11 11 15 45 14 485 -9
548 -12 583 -29 20 -9 41 -14 46 -10 7 3 11 -3 11 -15 0 -17 4 -20 18 -15 9 4
51 10 92 12 70 4 77 3 103 -22 15 -14 27 -35 27 -45 0 -11 5 -20 10 -20 6 0
10 -11 10 -25 0 -23 2 -25 21 -14 17 9 20 17 15 41 -5 24 -3 29 9 24 8 -3 15
-1 15 3 0 5 -5 11 -11 13 -7 2 -8 15 -2 38 l9 35 7 -27 c4 -16 12 -28 17 -28
14 0 12 54 -2 68 -8 8 -9 18 -1 34 18 37 -1 151 -30 188 -20 26 -70 47 -74 33
-7 -21 -22 -15 -16 6 3 10 0 22 -7 26 -7 4 -14 -1 -17 -14 -6 -23 -18 -27 -28
-11 -5 7 -11 8 -19 1 -7 -6 -17 -6 -26 -1 -8 6 -25 10 -38 10 -12 0 -25 7 -28
15 -11 28 -24 15 -24 -22 l0 -38 -26 33 c-18 22 -34 32 -54 32 -19 0 -29 6
-33 20 -7 25 -27 26 -27 1 0 -18 -1 -18 -36 0 -36 18 -95 17 -102 -3 -2 -4
-15 -8 -28 -8 -14 0 -27 -7 -30 -15 -4 -8 -11 -15 -16 -15 -6 0 -8 7 -4 15 4
12 0 14 -20 9 -17 -4 -29 -2 -34 6 -4 7 -13 9 -19 6 -16 -10 -14 -26 4 -26 20
0 19 -24 0 -40 -9 -7 -14 -22 -13 -34 2 -15 -2 -21 -14 -20 -11 1 -18 -5 -18
-17 0 -25 18 -33 45 -19 18 10 30 8 69 -10 39 -17 45 -24 36 -35 -7 -8 -16
-13 -20 -10 -5 3 -11 1 -15 -5 -4 -6 12 -10 42 -11 56 -1 81 -5 166 -24 l62
-15 -106 4 c-58 2 -130 0 -160 -5 -49 -8 -140 -2 -262 17 -62 10 -28 27 50 25
48 -1 64 2 53 9 -8 5 -28 10 -44 10 -28 0 -28 1 23 46 39 35 51 53 51 74 0 17
7 33 18 40 16 10 16 10 0 20 -28 17 -21 38 18 55 26 11 34 19 30 31 -3 8 -6
22 -6 30 0 19 -29 18 -36 -1 -4 -8 -11 -15 -16 -15 -6 0 -8 6 -5 14 8 20 -13
38 -29 25 -8 -7 -25 2 -59 31 -25 22 -55 40 -65 40 -10 0 -22 5 -25 10 -13 22
-155 3 -155 -20 0 -11 46 -40 63 -40 8 0 21 -7 28 -16 7 -9 24 -20 37 -25 32
-12 17 -32 -18 -24 -16 3 -31 2 -35 -4 -3 -6 -17 -11 -30 -11 -13 0 -27 -5
-30 -10 -4 -6 -15 -8 -25 -5 -13 4 -20 0 -25 -15 -4 -14 -14 -21 -28 -19 -12
0 -24 0 -27 -1 -3 -1 -32 -4 -65 -6 -112 -6 -152 -22 -209 -79 -36 -35 -61
-109 -53 -151 2 -15 1 -57 -4 -94 -5 -39 -4 -81 1 -99 8 -27 6 -31 -11 -31
-14 0 -19 -5 -17 -17 3 -12 12 -17 28 -16 24 3 25 2 5 -12 -11 -9 -33 -27 -48
-41 -31 -29 -48 -25 -28 7 17 28 11 31 -24 12 -43 -22 -85 -26 -85 -8 0 20
-17 19 -29 -2 -10 -17 -10 -17 -11 0 0 10 -7 20 -15 23 -8 4 -15 19 -15 35 0
18 -7 32 -20 39 -11 6 -21 7 -21 3 -1 -4 -2 -12 -4 -18 -1 -5 -3 -17 -3 -25
-1 -8 -11 -21 -23 -28 -20 -13 -21 -12 -14 17 5 25 4 30 -8 25 -11 -4 -16 2
-19 23 -2 22 -8 28 -25 26 -16 -2 -23 4 -25 20 -2 15 -12 23 -33 27 -25 4 -30
10 -33 38 -2 18 1 32 7 32 6 0 11 5 11 10 0 21 -27 9 -40 -17 -7 -16 -14 -23
-15 -18 -12 50 -31 104 -43 123 -13 19 -10 26 9 24 7 -1 9 29 2 48 -3 8 -7 31
-9 50 -5 57 -10 85 -16 96 -3 5 -4 27 -3 49 1 22 -1 45 -5 50 -4 6 -10 39 -14
74 -3 35 -10 69 -15 75 -14 16 -4 505 10 522 6 8 9 20 6 29 -4 8 1 19 11 25
15 9 15 11 2 19 -25 15 -26 180 -2 223 41 72 77 116 148 182 41 38 74 76 74
85 0 19 35 61 50 61 6 0 10 7 10 16 0 10 -6 14 -15 10 -27 -10 -16 12 34 63
28 29 53 61 56 71 4 11 10 20 14 20 4 0 18 20 30 45 12 24 26 47 32 50 5 4 9
15 9 25 0 41 81 209 117 242 69 65 108 98 115 98 15 0 8 19 -9 23 -12 3 -10 5
7 6 14 1 37 7 52 15 15 8 42 17 60 21 80 15 204 49 216 58 9 7 16 7 24 -1 20
-20 40 -14 33 8 -6 20 9 28 20 10 9 -15 69 -12 170 9 50 10 108 17 129 15 22
-2 44 0 50 5 23 20 207 19 232 0z"/>
<path d="M4870 6283 c-11 -8 -29 -11 -40 -8 -13 4 -31 -2 -51 -16 -25 -18 -33
-19 -40 -8 -10 17 -29 -5 -59 -68 l-20 -41 -77 -5 c-43 -2 -96 -9 -118 -15
-42 -12 -343 -16 -382 -6 -13 4 -23 13 -23 20 0 21 -37 54 -60 54 -11 0 -20 5
-20 11 0 12 -29 38 -42 39 -5 0 -8 -6 -8 -14 0 -11 -7 -11 -42 1 -65 22 -138
32 -172 22 -18 -5 -32 -5 -34 0 -4 11 -139 3 -177 -11 -16 -6 -55 -32 -85 -57
-30 -25 -59 -49 -65 -54 -5 -4 -30 -26 -55 -48 -41 -36 -43 -41 -28 -53 16
-12 14 -15 -22 -42 -22 -16 -40 -35 -40 -41 0 -17 17 -16 27 1 8 13 88 57 165
90 20 9 52 16 71 16 20 0 47 4 62 10 19 7 35 6 58 -3 20 -8 43 -11 59 -6 16 4
30 3 34 -2 7 -12 49 -29 79 -34 29 -4 55 -16 55 -25 0 -13 -76 -26 -205 -34
-63 -4 -109 -18 -120 -35 -3 -6 -15 -11 -26 -11 -10 0 -19 -4 -19 -9 0 -5 -9
-12 -19 -16 -10 -3 -31 -18 -45 -32 -24 -23 -25 -28 -11 -36 10 -5 15 -19 13
-35 -3 -25 0 -27 79 -42 44 -9 100 -14 124 -12 41 4 42 5 18 17 -16 9 -28 10
-36 3 -9 -7 -14 -3 -18 15 -4 14 -15 27 -26 30 -28 8 -23 23 17 46 44 26 54
26 54 1 0 -11 11 -38 25 -60 25 -39 27 -40 83 -40 53 0 61 3 90 33 27 28 32
41 32 80 0 26 2 47 5 47 28 0 173 -114 157 -124 -4 -2 -32 -4 -62 -5 -30 -1
-59 -6 -65 -12 -6 -6 22 -9 89 -7 62 2 101 7 103 14 2 6 -8 26 -22 43 -35 41
-28 65 9 28 27 -27 46 -28 46 -3 0 20 -58 96 -74 96 -8 0 -17 12 -21 27 -8 32
-20 42 -55 44 -14 0 -19 3 -12 6 6 2 12 10 12 17 0 9 -29 16 -87 23 l-88 10
88 1 c52 1 87 -2 87 -8 0 -5 9 -10 19 -10 11 0 23 -4 26 -10 3 -5 19 -10 34
-10 15 0 37 -9 50 -21 12 -12 25 -18 29 -14 3 3 0 10 -8 15 -8 5 -11 12 -7 16
4 4 23 -9 42 -29 36 -37 55 -46 55 -27 0 5 -14 24 -32 42 l-32 33 40 12 c31 9
34 12 14 12 -30 1 -56 16 -43 24 6 4 96 6 201 5 112 0 197 4 205 9 14 11 87
16 87 6 0 -4 -10 -17 -22 -30 l-21 -23 27 0 c31 0 66 16 83 39 8 12 29 16 72
16 59 1 77 -7 45 -19 -27 -10 -3 -28 29 -22 17 4 70 8 118 10 59 2 94 9 110
20 15 10 44 16 81 16 56 0 75 11 42 24 -9 3 -56 6 -105 6 -58 0 -88 4 -84 10
4 6 55 10 120 10 65 0 116 -4 120 -10 3 -5 18 -10 33 -10 15 0 36 -7 46 -15
11 -8 29 -15 40 -15 11 0 30 -10 43 -22 13 -12 26 -19 29 -15 8 8 -8 23 -76
74 -30 22 -68 55 -84 72 -21 21 -36 29 -49 25 -11 -3 -26 1 -38 12 -18 16 -19
16 -19 -1 0 -10 -5 -15 -13 -12 -7 3 -46 14 -87 25 -104 28 -164 33 -190 15z"/>
<path d="M4815 5962 c-59 -6 -155 -62 -155 -89 0 -9 -8 -22 -17 -29 -16 -12
-16 -15 -3 -26 8 -7 15 -19 16 -25 2 -28 4 -33 13 -33 5 0 7 9 4 20 -4 16 0
20 21 20 14 0 26 6 26 13 0 7 16 21 35 31 19 11 35 23 35 28 0 4 9 8 19 8 11
0 23 5 26 10 14 23 23 7 18 -30 -4 -30 -1 -45 12 -60 23 -25 13 -35 -31 -31
-18 1 -34 -2 -34 -7 0 -5 51 -9 115 -10 l115 0 27 35 c17 22 27 48 27 70 0 32
2 34 26 28 29 -7 80 -53 80 -71 0 -7 -12 -22 -26 -33 -22 -17 -24 -22 -10 -27
9 -3 27 -3 41 0 16 4 34 0 50 -10 24 -16 27 -15 45 1 10 9 23 14 29 11 16 -10
24 13 10 30 -13 16 -13 16 16 32 l20 11 -20 7 c-11 5 -27 16 -35 26 -28 32
-118 70 -150 63 -23 -5 -30 -3 -30 8 0 12 -19 17 -87 21 -145 10 -196 12 -228
8z"/>
<path d="M4453 5953 c-21 -3 -33 -10 -33 -19 0 -10 6 -13 18 -10 31 9 57 -25
70 -93 6 -36 17 -68 23 -72 6 -4 9 -11 5 -17 -3 -5 1 -15 9 -22 8 -7 15 -23
15 -36 0 -13 5 -24 10 -24 6 0 10 -6 10 -14 0 -17 189 -216 204 -216 6 0 29
-16 50 -35 22 -19 50 -35 63 -35 13 0 23 -4 23 -8 0 -12 70 -43 81 -37 14 9
11 25 -6 25 -8 0 -23 4 -33 9 -106 53 -128 64 -132 70 -3 4 -21 18 -40 31 -46
31 -160 146 -160 162 -1 18 -25 48 -39 48 -6 0 -11 11 -11 25 0 14 -4 25 -10
25 -5 0 -10 9 -10 20 0 27 10 25 36 -7 12 -16 26 -24 31 -20 4 5 0 14 -10 22
-11 8 -15 19 -10 30 6 16 2 17 -30 12 l-37 -6 0 64 c0 64 -24 136 -45 133 -5
-1 -25 -3 -42 -5z"/>
<path d="M3068 5842 c-37 -3 -48 -14 -27 -27 7 -5 4 -14 -7 -26 -17 -19 -17
-20 4 -26 12 -3 22 -12 22 -19 0 -8 7 -14 16 -14 14 0 14 3 4 15 -10 12 -9 15
8 15 49 0 52 -6 52 -115 0 -79 3 -105 15 -115 8 -7 15 -23 15 -36 0 -13 5 -24
10 -24 13 0 13 43 0 56 -5 5 -11 56 -14 113 -2 56 -7 105 -10 108 -3 3 4 19
15 34 20 28 14 40 -8 18 -14 -14 -75 -8 -81 9 -2 8 10 12 43 12 33 0 45 4 43
13 -5 12 -31 15 -100 9z"/>
<path d="M4150 5756 c0 -25 -4 -48 -10 -51 -5 -3 -10 -17 -10 -29 0 -27 -39
-102 -88 -166 -48 -65 -152 -170 -167 -170 -8 0 -22 -11 -33 -25 -11 -14 -27
-25 -36 -25 -9 0 -16 -4 -16 -10 0 -16 23 -11 50 10 24 19 50 26 50 15 0 -3
-7 -16 -15 -29 -15 -23 -15 -24 14 -28 37 -5 49 5 85 71 20 37 25 56 17 59 -7
2 4 22 27 50 35 43 50 66 118 180 12 20 19 44 16 55 -3 12 1 23 12 29 24 14
20 108 -5 108 -5 0 -9 -20 -9 -44z"/>
<path d="M4240 4475 c0 -18 -12 -19 -27 -4 -9 9 -14 5 -19 -15 -8 -33 -24 -34
-24 -1 0 34 -29 22 -37 -16 -3 -16 -10 -32 -14 -35 -12 -7 -11 -24 1 -24 6 0
10 7 10 15 0 8 5 15 10 15 6 0 10 -11 10 -25 0 -14 -4 -25 -10 -25 -18 0 -10
-35 10 -48 12 -7 18 -17 14 -23 -13 -21 75 -79 108 -72 9 2 19 14 21 26 l4 22
8 -21 c3 -12 18 -28 32 -35 23 -12 24 -17 18 -67 -5 -43 -4 -53 7 -50 9 3 13
25 13 75 0 80 7 94 33 70 24 -22 50 -7 27 17 -15 14 -15 16 -1 16 9 0 16 5 16
11 0 5 5 7 12 3 7 -4 32 -9 56 -10 32 -1 42 2 38 11 -3 8 2 16 10 19 8 3 14
15 14 26 0 11 5 20 10 20 6 0 10 -4 10 -10 0 -5 5 -10 10 -10 18 0 11 28 -15
58 -14 17 -26 40 -26 53 -1 17 -3 19 -6 7 -2 -10 -11 -18 -19 -18 -8 0 -14 -4
-14 -10 0 -19 -19 -10 -58 29 -28 28 -43 36 -50 29 -8 -8 -16 -7 -27 2 -12 10
-18 10 -30 0 -10 -9 -15 -9 -15 -1 0 6 -16 11 -35 11 -29 0 -35 -4 -36 -22 l0
-23 -11 23 c-13 25 -28 29 -28 7z"/>
<path d="M5415 3860 c31 -108 42 -353 24 -587 -10 -143 -10 -180 1 -214 11
-33 11 -47 1 -76 -10 -26 -13 -139 -13 -458 1 -397 0 -426 -17 -447 -16 -19
-21 -20 -35 -9 -9 7 -16 20 -16 27 0 7 -28 36 -62 64 -66 52 -104 95 -130 145
-21 41 -38 96 -38 125 0 30 -21 91 -37 108 -7 7 -13 18 -13 23 0 15 -47 59
-62 58 -12 0 -59 -47 -149 -149 -33 -38 -37 -47 -24 -56 11 -8 12 -18 5 -43
-7 -27 -6 -35 11 -49 10 -9 19 -20 19 -24 0 -11 62 -67 74 -68 5 0 23 -15 40
-32 17 -18 46 -43 64 -55 38 -26 97 -31 106 -8 3 8 14 15 25 15 14 0 18 5 14
20 -6 23 15 28 23 5 4 -8 12 -15 19 -15 8 0 29 -19 49 -42 26 -30 34 -47 30
-63 -3 -13 -1 -26 5 -29 14 -9 14 -181 1 -326 -11 -115 -27 -571 -34 -970 -5
-245 4 -472 20 -535 13 -54 26 -55 149 -19 1022 304 1919 1015 2455 1948 81
142 211 407 204 418 -3 4 -14 8 -24 8 -10 0 -22 4 -25 10 -3 5 -23 17 -43 26
-20 8 -45 20 -54 25 -10 5 -26 9 -37 9 -10 0 -24 7 -31 15 -7 8 -23 15 -36 15
-12 0 -26 5 -29 10 -3 6 -19 10 -35 10 -16 0 -32 5 -35 10 -3 6 -17 10 -30 10
-13 0 -27 5 -30 10 -3 6 -14 10 -24 10 -10 0 -24 7 -31 15 -7 8 -23 15 -36 15
-12 0 -26 5 -29 10 -3 6 -15 10 -26 10 -19 0 -27 3 -86 34 -17 9 -38 16 -47
16 -9 0 -25 5 -36 10 -11 6 -29 15 -40 20 -11 6 -29 10 -40 10 -11 0 -20 5
-20 10 0 6 -13 10 -29 10 -16 0 -34 7 -41 15 -7 8 -23 15 -36 15 -12 0 -26 5
-29 10 -3 6 -19 10 -35 10 -16 0 -32 5 -35 10 -3 6 -14 10 -24 10 -10 0 -24 7
-31 15 -7 8 -23 15 -36 15 -12 0 -26 5 -29 10 -3 6 -19 10 -36 10 -16 0 -29 5
-29 10 0 6 -9 10 -19 10 -11 0 -23 5 -26 10 -3 6 -19 10 -34 10 -15 0 -36 7
-47 15 -10 8 -31 15 -46 15 -15 0 -30 5 -33 10 -3 6 -17 10 -30 10 -13 0 -27
5 -30 10 -3 6 -19 10 -34 10 -16 0 -34 7 -41 15 -7 8 -25 15 -41 15 -15 0 -31
5 -34 10 -3 6 -15 10 -26 10 -10 0 -19 5 -19 10 0 6 -11 10 -25 10 -14 0 -33
4 -43 9 -9 5 -38 18 -64 28 -27 10 -48 21 -48 26 0 4 -9 7 -20 7 -11 0 -28 4
-38 9 -70 36 -126 61 -139 61 -8 0 -27 8 -41 19 -15 10 -36 21 -48 25 -11 3
-30 20 -42 36 -13 17 -28 30 -35 30 -7 0 -48 36 -92 81 -44 45 -93 90 -110
100 -16 10 -90 78 -164 151 -90 90 -131 125 -126 108z m6 -2217 c-1 -175 -5
-336 -8 -358 -4 -22 -9 -149 -12 -282 -3 -133 -9 -244 -12 -247 -6 -6 -23 486
-20 574 1 24 7 48 14 52 9 6 9 8 0 8 -7 0 -13 10 -13 21 0 16 3 19 13 11 10
-9 13 29 15 191 2 111 5 218 7 237 2 19 4 55 4 79 1 24 4 41 8 38 3 -4 5 -150
4 -324z"/>
<path d="M3010 3821 c0 -5 -15 -16 -33 -24 -18 -9 -75 -60 -125 -114 -115
-122 -98 -104 -222 -226 -58 -57 -127 -129 -153 -160 -27 -31 -57 -57 -67 -57
-11 0 -22 -4 -25 -10 -3 -5 -17 -10 -29 -10 -13 0 -29 -7 -36 -15 -7 -8 -21
-15 -31 -15 -11 0 -27 -4 -37 -9 -9 -5 -30 -14 -47 -21 -16 -7 -42 -19 -57
-26 -14 -8 -33 -14 -42 -14 -9 0 -24 -4 -34 -9 -9 -5 -28 -13 -42 -19 -14 -5
-51 -22 -83 -36 -32 -14 -64 -26 -72 -26 -7 0 -17 -4 -20 -10 -3 -5 -17 -10
-31 -10 -13 0 -24 -4 -24 -10 0 -5 -10 -10 -23 -10 -13 0 -47 -11 -75 -25 -29
-14 -61 -25 -71 -25 -11 0 -23 -4 -26 -10 -3 -5 -17 -10 -30 -10 -13 0 -27 -4
-30 -10 -3 -5 -15 -10 -26 -10 -11 0 -42 -11 -69 -25 -27 -14 -60 -25 -74 -25
-14 0 -28 -4 -31 -10 -3 -5 -19 -10 -36 -10 -16 0 -29 -4 -29 -10 0 -5 -13
-10 -29 -10 -16 0 -36 -7 -45 -15 -8 -8 -21 -15 -30 -15 -8 0 -18 -4 -21 -10
-3 -5 -19 -10 -36 -10 -16 0 -29 -4 -29 -10 0 -5 -9 -10 -19 -10 -11 0 -22 -4
-25 -9 -4 -5 -32 -17 -64 -27 -31 -9 -61 -21 -66 -26 -6 -4 -18 -8 -27 -8 -10
0 -37 -10 -61 -23 -24 -12 -63 -29 -88 -36 -25 -8 -49 -18 -54 -23 -6 -4 -16
-8 -24 -8 -7 0 -20 -7 -28 -15 -9 -8 -26 -15 -39 -15 -13 0 -27 -4 -30 -10 -3
-5 -15 -10 -26 -10 -10 0 -29 -5 -42 -12 -47 -24 -57 -28 -74 -28 -48 -1 -46
-14 17 -141 536 -1070 1495 -1868 2631 -2189 169 -48 174 -48 158 -17 -12 22
-26 108 -35 222 -3 33 -9 69 -14 80 -5 11 -11 56 -14 100 -11 154 -23 246 -34
257 -8 8 -12 48 -12 109 0 55 -4 101 -10 104 -5 3 -10 33 -10 65 0 32 -4 62
-10 65 -6 3 -10 51 -10 108 0 71 -5 111 -15 131 -9 17 -15 56 -15 100 0 39 -5
89 -10 111 -10 41 -14 372 -6 435 8 59 14 122 21 205 8 118 27 225 40 225 6 0
19 -16 29 -35 11 -19 22 -35 26 -35 4 0 20 -14 36 -31 38 -39 99 -79 122 -79
41 0 53 43 30 107 -14 39 -3 55 18 25 8 -12 24 -22 34 -22 10 0 22 -4 25 -10
13 -21 25 -9 25 24 0 19 5 38 11 42 6 3 9 17 6 31 -3 15 1 27 9 30 7 2 10 12
7 20 -5 12 -1 14 15 9 17 -6 21 -1 27 24 4 17 13 34 21 37 8 3 14 17 14 32 0
15 7 36 15 47 8 10 15 34 15 52 0 17 5 32 10 32 6 0 10 7 10 15 0 8 -6 15 -13
15 -16 0 -85 -46 -112 -75 -11 -12 -27 -24 -35 -28 -8 -4 -33 -18 -55 -31 -22
-14 -60 -36 -85 -49 -25 -13 -65 -35 -90 -49 -45 -25 -69 -37 -110 -58 -11 -5
-37 -10 -58 -10 -21 0 -43 -5 -49 -11 -6 -6 -29 -13 -50 -16 -62 -7 -71 11
-77 152 -3 66 -10 174 -15 240 -19 222 -24 495 -11 524 7 14 17 37 23 51 5 14
13 33 18 42 5 10 9 25 9 34 0 9 7 30 16 47 31 59 34 67 34 86 0 11 5 23 10 26
6 3 10 12 10 20 0 8 11 31 25 51 14 20 25 45 25 55 0 11 5 19 10 19 6 0 10 5
10 10 0 6 -4 10 -10 10 -5 0 -10 -4 -10 -9z"/>
<path d="M3170 3709 c0 -13 39 -137 50 -159 4 -9 11 -30 14 -48 4 -17 12 -34
17 -37 5 -4 9 -15 9 -26 0 -10 5 -19 10 -19 6 0 10 -7 10 -16 0 -8 14 -29 30
-47 17 -18 38 -48 46 -67 17 -37 44 -92 76 -151 10 -20 28 -45 38 -54 11 -10
20 -23 20 -29 0 -10 40 -66 95 -131 14 -16 47 -60 73 -96 78 -109 135 -184
144 -187 4 -2 8 -10 8 -17 0 -8 6 -18 14 -22 7 -4 16 -15 19 -23 4 -11 6 -9 6
6 1 11 -8 29 -19 39 -11 10 -20 22 -20 28 0 5 -25 44 -55 87 -30 43 -55 83
-55 89 0 6 -4 11 -10 11 -5 0 -12 11 -16 25 -3 14 -16 32 -27 40 -15 11 -17
15 -7 15 11 1 8 6 -7 19 -13 11 -23 24 -23 30 0 6 -8 15 -18 20 -12 7 -17 20
-17 45 1 21 -4 37 -12 40 -7 3 -18 16 -24 28 -20 45 -36 68 -42 61 -4 -3 -7 5
-7 18 0 13 -9 41 -20 62 -11 21 -18 42 -15 47 3 5 -3 15 -13 22 -10 7 -22 28
-25 47 -4 18 -18 42 -32 53 -15 11 -24 28 -22 41 1 14 -3 21 -11 19 -9 -2 -12
4 -7 17 3 11 0 21 -9 24 -8 3 -16 16 -19 29 l-4 23 -2 -22 c-1 -22 -21 -34
-21 -12 0 5 -4 7 -10 4 -6 -4 -10 5 -10 20 0 15 4 24 10 20 6 -4 7 1 3 11 -6
16 -8 16 -17 2 -8 -13 -13 -9 -29 26 -10 22 -23 48 -28 56 -5 8 -12 23 -15 33
-7 19 -24 23 -24 6z"/>
<path d="M5317 3534 c-4 -4 -7 -18 -7 -30 0 -13 -4 -26 -10 -29 -5 -3 -10 -14
-10 -24 0 -10 -7 -24 -15 -31 -8 -7 -15 -20 -15 -29 0 -14 -67 -158 -80 -171
-15 -15 -48 -68 -54 -88 -4 -12 -11 -22 -15 -22 -4 0 -18 -21 -31 -47 -13 -27
-28 -52 -32 -58 -29 -35 -124 -174 -126 -186 -2 -7 -10 -18 -18 -22 -8 -4 -21
-25 -30 -45 -14 -33 -17 -35 -24 -17 -7 16 -9 17 -9 3 -1 -9 -19 -36 -41 -60
-22 -24 -40 -48 -40 -55 0 -7 -9 -17 -20 -23 -11 -6 -20 -17 -20 -25 0 -8 -4
-15 -9 -15 -5 0 -19 -20 -31 -45 -15 -30 -28 -45 -41 -45 -10 0 -19 -7 -19
-15 0 -8 6 -15 13 -15 30 0 126 71 175 130 30 36 66 79 81 95 15 17 35 43 45
59 11 17 31 44 46 60 36 39 94 117 103 136 4 8 18 33 32 55 14 22 28 47 31 55
3 8 17 37 30 63 13 27 24 55 24 62 0 11 45 111 81 177 5 10 9 27 9 37 0 11 5
23 10 26 6 3 10 17 10 31 0 14 6 35 14 47 13 22 8 75 -7 61z"/>
<path d="M3625 2693 c-38 -9 -45 -24 -45 -88 0 -56 3 -67 29 -94 18 -19 39
-31 54 -31 30 0 57 33 57 70 0 51 -47 153 -69 149 -3 -1 -15 -4 -26 -6z"/>
<path d="M4344 2163 c-9 -16 -23 -32 -30 -38 -7 -5 -14 -19 -17 -30 -4 -18 -5
-18 -15 5 l-11 25 -7 -22 c-7 -24 -33 -30 -51 -12 -8 8 -13 5 -18 -10 -3 -12
-15 -21 -25 -21 -10 0 -20 -6 -23 -12 -3 -10 -7 -10 -20 1 -14 11 -17 11 -17
0 0 -18 113 -249 122 -249 5 0 8 13 8 29 0 17 5 33 10 36 6 3 10 19 10 34 0
15 5 32 11 38 6 6 11 27 11 47 0 20 5 39 12 44 17 11 36 49 36 72 0 12 9 30
20 42 11 12 20 28 20 35 0 19 -6 16 -26 -14z"/>
<path d="M4200 1227 c-64 -63 -25 -177 60 -177 53 0 74 27 74 97 0 49 -3 58
-28 78 -45 36 -71 36 -106 2z"/>
<path d="M4037 622 c-7 -306 1 -622 15 -622 10 0 5 886 -4 896 -3 2 -8 -121
-11 -274z"/>
</g>
</svg>
